<mxfile host="65bd71144e">
    <diagram id="bVoswQC8T6PlKmy4Bn8u" name="Page-1">
        <mxGraphModel dx="149" dy="1850" grid="1" gridSize="10" guides="1" tooltips="1" connect="1" arrows="1" fold="1" page="1" pageScale="1" pageWidth="827" pageHeight="1169" math="0" shadow="0">
            <root>
                <mxCell id="0"/>
                <mxCell id="1" parent="0"/>
                <mxCell id="130" value="triangleHeight()" style="text;html=1;align=center;verticalAlign=middle;resizable=0;points=[];autosize=1;strokeColor=none;fillColor=none;" parent="1" vertex="1">
                    <mxGeometry x="1576" y="-90" width="100" height="20" as="geometry"/>
                </mxCell>
                <mxCell id="258" style="edgeStyle=none;html=1;entryX=0.5;entryY=0;entryDx=0;entryDy=0;" parent="1" source="196" target="257" edge="1">
                    <mxGeometry relative="1" as="geometry"/>
                </mxCell>
                <mxCell id="196" value="const area: number = this.triangleArea()" style="rounded=1;whiteSpace=wrap;html=1;" parent="1" vertex="1">
                    <mxGeometry x="1511.5" y="205" width="238.5" height="35" as="geometry"/>
                </mxCell>
                <mxCell id="358" style="edgeStyle=none;rounded=0;html=1;entryX=0.5;entryY=0;entryDx=0;entryDy=0;fontSize=11;endArrow=classic;endFill=1;" parent="1" source="198" target="357" edge="1">
                    <mxGeometry relative="1" as="geometry"/>
                </mxCell>
                <mxCell id="198" value="Start" style="ellipse;whiteSpace=wrap;html=1;" parent="1" vertex="1">
                    <mxGeometry x="1571" y="-70" width="120" height="60" as="geometry"/>
                </mxCell>
                <mxCell id="200" value="Stop" style="ellipse;whiteSpace=wrap;html=1;" parent="1" vertex="1">
                    <mxGeometry x="1571" y="650" width="120" height="60" as="geometry"/>
                </mxCell>
                <mxCell id="286" style="edgeStyle=none;html=1;entryX=0.5;entryY=0;entryDx=0;entryDy=0;" parent="1" source="207" target="281" edge="1">
                    <mxGeometry relative="1" as="geometry"/>
                </mxCell>
                <mxCell id="207" value="height = (2* area) / this.sideC" style="rounded=1;whiteSpace=wrap;html=1;" parent="1" vertex="1">
                    <mxGeometry x="1500" y="490" width="260" height="30" as="geometry"/>
                </mxCell>
                <mxCell id="267" value="" style="edgeStyle=none;rounded=0;html=1;endArrow=classic;endFill=1;" parent="1" source="257" target="266" edge="1">
                    <mxGeometry relative="1" as="geometry"/>
                </mxCell>
                <mxCell id="269" value="" style="edgeStyle=none;rounded=0;html=1;endArrow=classic;endFill=1;" parent="1" source="257" target="261" edge="1">
                    <mxGeometry relative="1" as="geometry"/>
                </mxCell>
                <mxCell id="257" value="if (side === 1)" style="rhombus;whiteSpace=wrap;html=1;" parent="1" vertex="1">
                    <mxGeometry x="1580" y="260" width="100" height="80" as="geometry"/>
                </mxCell>
                <mxCell id="276" style="edgeStyle=none;rounded=0;html=1;endArrow=none;endFill=0;" parent="1" source="261" edge="1">
                    <mxGeometry relative="1" as="geometry">
                        <mxPoint x="1990" y="410" as="targetPoint"/>
                        <Array as="points">
                            <mxPoint x="1990" y="300"/>
                        </Array>
                    </mxGeometry>
                </mxCell>
                <mxCell id="261" value="height = (2* area) / this.sideA" style="rounded=1;whiteSpace=wrap;html=1;" parent="1" vertex="1">
                    <mxGeometry x="1710" y="280" width="240" height="35" as="geometry"/>
                </mxCell>
                <mxCell id="272" style="edgeStyle=none;rounded=0;html=1;entryX=0;entryY=0.5;entryDx=0;entryDy=0;endArrow=classic;endFill=1;" parent="1" source="266" target="271" edge="1">
                    <mxGeometry relative="1" as="geometry"/>
                </mxCell>
                <mxCell id="285" style="edgeStyle=none;html=1;entryX=0.5;entryY=0;entryDx=0;entryDy=0;" parent="1" source="266" target="207" edge="1">
                    <mxGeometry relative="1" as="geometry"/>
                </mxCell>
                <mxCell id="266" value="if (side === 2)" style="rhombus;whiteSpace=wrap;html=1;" parent="1" vertex="1">
                    <mxGeometry x="1581" y="365" width="100" height="80" as="geometry"/>
                </mxCell>
                <mxCell id="275" style="edgeStyle=none;rounded=0;html=1;entryX=1;entryY=0.5;entryDx=0;entryDy=0;endArrow=classic;endFill=1;exitX=1;exitY=0.5;exitDx=0;exitDy=0;" parent="1" source="271" target="281" edge="1">
                    <mxGeometry relative="1" as="geometry">
                        <Array as="points">
                            <mxPoint x="1990" y="405"/>
                            <mxPoint x="1990" y="596"/>
                        </Array>
                    </mxGeometry>
                </mxCell>
                <mxCell id="271" value="height = (2* area) / this.sideB" style="rounded=1;whiteSpace=wrap;html=1;" parent="1" vertex="1">
                    <mxGeometry x="1700" y="385" width="260" height="40" as="geometry"/>
                </mxCell>
                <mxCell id="277" value="no" style="text;html=1;align=center;verticalAlign=middle;resizable=0;points=[];autosize=1;strokeColor=none;fillColor=none;" parent="1" vertex="1">
                    <mxGeometry x="1651" y="330" width="30" height="20" as="geometry"/>
                </mxCell>
                <mxCell id="278" value="yes" style="text;html=1;align=center;verticalAlign=middle;resizable=0;points=[];autosize=1;strokeColor=none;fillColor=none;" parent="1" vertex="1">
                    <mxGeometry x="1660" y="260" width="30" height="20" as="geometry"/>
                </mxCell>
                <mxCell id="279" value="no" style="text;html=1;align=center;verticalAlign=middle;resizable=0;points=[];autosize=1;strokeColor=none;fillColor=none;" parent="1" vertex="1">
                    <mxGeometry x="1660" y="440" width="30" height="20" as="geometry"/>
                </mxCell>
                <mxCell id="283" value="" style="edgeStyle=none;rounded=0;html=1;endArrow=classic;endFill=1;" parent="1" source="281" target="200" edge="1">
                    <mxGeometry relative="1" as="geometry"/>
                </mxCell>
                <mxCell id="281" value="return height" style="shape=parallelogram;perimeter=parallelogramPerimeter;whiteSpace=wrap;html=1;fixedSize=1;" parent="1" vertex="1">
                    <mxGeometry x="1558.5" y="580" width="145" height="32.5" as="geometry"/>
                </mxCell>
                <mxCell id="364" value="" style="edgeStyle=none;rounded=0;html=1;fontSize=11;endArrow=classic;endFill=1;" parent="1" source="357" target="362" edge="1">
                    <mxGeometry relative="1" as="geometry"/>
                </mxCell>
                <mxCell id="369" value="" style="edgeStyle=none;rounded=0;html=1;fontSize=11;endArrow=classic;endFill=1;" parent="1" source="357" target="196" edge="1">
                    <mxGeometry relative="1" as="geometry"/>
                </mxCell>
                <mxCell id="357" value="if (!this.isTriangleValid())" style="rhombus;whiteSpace=wrap;html=1;" parent="1" vertex="1">
                    <mxGeometry x="1554.75" y="22.5" width="152.5" height="130" as="geometry"/>
                </mxCell>
                <mxCell id="360" value="no" style="text;html=1;align=center;verticalAlign=middle;resizable=0;points=[];autosize=1;strokeColor=none;fillColor=none;fontSize=11;" parent="1" vertex="1">
                    <mxGeometry x="1700" y="47.5" width="30" height="20" as="geometry"/>
                </mxCell>
                <mxCell id="361" value="yes" style="text;html=1;align=center;verticalAlign=middle;resizable=0;points=[];autosize=1;strokeColor=none;fillColor=none;fontSize=11;" parent="1" vertex="1">
                    <mxGeometry x="1646" y="170" width="30" height="20" as="geometry"/>
                </mxCell>
                <mxCell id="367" style="edgeStyle=none;rounded=0;html=1;fontSize=11;endArrow=none;endFill=0;" parent="1" source="362" edge="1">
                    <mxGeometry relative="1" as="geometry">
                        <mxPoint x="1990" y="390" as="targetPoint"/>
                        <Array as="points">
                            <mxPoint x="1993" y="85"/>
                        </Array>
                    </mxGeometry>
                </mxCell>
                <mxCell id="362" value="const height= -1" style="rounded=1;whiteSpace=wrap;html=1;" parent="1" vertex="1">
                    <mxGeometry x="1750" y="70" width="140" height="30" as="geometry"/>
                </mxCell>
                <mxCell id="370" value="&lt;b&gt;&lt;font style=&quot;font-size: 22px&quot;&gt;ASK IF ONLY HAVING ONE IS FINE&lt;/font&gt;&lt;/b&gt;" style="text;html=1;align=center;verticalAlign=middle;resizable=0;points=[];autosize=1;strokeColor=none;fillColor=none;" vertex="1" parent="1">
                    <mxGeometry x="1600" y="450" width="380" height="20" as="geometry"/>
                </mxCell>
                <mxCell id="371" value="&lt;b style=&quot;color: rgb(0 , 0 , 0) ; font-family: &amp;#34;helvetica&amp;#34; ; font-size: 12px ; font-style: normal ; letter-spacing: normal ; text-align: center ; text-indent: 0px ; text-transform: none ; word-spacing: 0px ; background-color: rgb(248 , 249 , 250)&quot;&gt;&lt;font style=&quot;font-size: 22px&quot;&gt;I HAVE TWO RETURNS ONE IN THE VALID, AND ONE IN THE ELSE, IS IT OK IF I USE ONE ONLY INSTEAD&lt;/font&gt;&lt;/b&gt;" style="text;whiteSpace=wrap;html=1;fontSize=22;" vertex="1" parent="1">
                    <mxGeometry x="1600" y="480" width="390" height="40" as="geometry"/>
                </mxCell>
                <mxCell id="404" value="innerCircleRadius()" style="text;html=1;align=center;verticalAlign=middle;resizable=0;points=[];autosize=1;strokeColor=none;fillColor=none;" vertex="1" parent="1">
                    <mxGeometry x="2166" y="-70" width="120" height="20" as="geometry"/>
                </mxCell>
                <mxCell id="436" style="edgeStyle=none;html=1;entryX=0.5;entryY=0;entryDx=0;entryDy=0;fontSize=22;endArrow=classic;endFill=1;" edge="1" parent="1" source="406" target="426">
                    <mxGeometry relative="1" as="geometry"/>
                </mxCell>
                <mxCell id="406" value="const innerCircle = this.triangleArea() / this.triangleSemiperimeter()" style="rounded=1;whiteSpace=wrap;html=1;" vertex="1" parent="1">
                    <mxGeometry x="2111.5" y="225" width="238.5" height="35" as="geometry"/>
                </mxCell>
                <mxCell id="407" style="edgeStyle=none;rounded=0;html=1;entryX=0.5;entryY=0;entryDx=0;entryDy=0;fontSize=11;endArrow=classic;endFill=1;" edge="1" parent="1" source="408" target="429">
                    <mxGeometry relative="1" as="geometry"/>
                </mxCell>
                <mxCell id="408" value="Start" style="ellipse;whiteSpace=wrap;html=1;" vertex="1" parent="1">
                    <mxGeometry x="2171" y="-50" width="120" height="60" as="geometry"/>
                </mxCell>
                <mxCell id="409" value="Stop" style="ellipse;whiteSpace=wrap;html=1;" vertex="1" parent="1">
                    <mxGeometry x="2171" y="365" width="120" height="60" as="geometry"/>
                </mxCell>
                <mxCell id="425" value="" style="edgeStyle=none;rounded=0;html=1;endArrow=classic;endFill=1;" edge="1" parent="1" source="426" target="409">
                    <mxGeometry relative="1" as="geometry"/>
                </mxCell>
                <mxCell id="426" value="return innerCircle" style="shape=parallelogram;perimeter=parallelogramPerimeter;whiteSpace=wrap;html=1;fixedSize=1;" vertex="1" parent="1">
                    <mxGeometry x="2158.5" y="295" width="145" height="32.5" as="geometry"/>
                </mxCell>
                <mxCell id="427" value="" style="edgeStyle=none;rounded=0;html=1;fontSize=11;endArrow=classic;endFill=1;" edge="1" parent="1" source="429" target="433">
                    <mxGeometry relative="1" as="geometry"/>
                </mxCell>
                <mxCell id="428" value="" style="edgeStyle=none;rounded=0;html=1;fontSize=11;endArrow=classic;endFill=1;" edge="1" parent="1" source="429" target="406">
                    <mxGeometry relative="1" as="geometry"/>
                </mxCell>
                <mxCell id="429" value="if (!this.isTriangleValid())" style="rhombus;whiteSpace=wrap;html=1;" vertex="1" parent="1">
                    <mxGeometry x="2154.75" y="42.5" width="152.5" height="130" as="geometry"/>
                </mxCell>
                <mxCell id="430" value="no" style="text;html=1;align=center;verticalAlign=middle;resizable=0;points=[];autosize=1;strokeColor=none;fillColor=none;fontSize=11;" vertex="1" parent="1">
                    <mxGeometry x="2300" y="67.5" width="30" height="20" as="geometry"/>
                </mxCell>
                <mxCell id="431" value="yes" style="text;html=1;align=center;verticalAlign=middle;resizable=0;points=[];autosize=1;strokeColor=none;fillColor=none;fontSize=11;" vertex="1" parent="1">
                    <mxGeometry x="2246" y="190" width="30" height="20" as="geometry"/>
                </mxCell>
                <mxCell id="432" style="edgeStyle=none;rounded=0;html=1;fontSize=11;endArrow=classic;endFill=1;entryX=1;entryY=0.5;entryDx=0;entryDy=0;" edge="1" parent="1" source="433" target="426">
                    <mxGeometry relative="1" as="geometry">
                        <mxPoint x="2590" y="410" as="targetPoint"/>
                        <Array as="points">
                            <mxPoint x="2520" y="105"/>
                            <mxPoint x="2520" y="311"/>
                        </Array>
                    </mxGeometry>
                </mxCell>
                <mxCell id="433" value="const innerCircle= -1" style="rounded=1;whiteSpace=wrap;html=1;" vertex="1" parent="1">
                    <mxGeometry x="2350" y="90" width="140" height="30" as="geometry"/>
                </mxCell>
                <mxCell id="437" value="innerCircleRadius()" style="text;html=1;align=center;verticalAlign=middle;resizable=0;points=[];autosize=1;strokeColor=none;fillColor=none;" vertex="1" parent="1">
                    <mxGeometry x="2634.5" y="-67.5" width="120" height="20" as="geometry"/>
                </mxCell>
                <mxCell id="438" style="edgeStyle=none;html=1;entryX=0.5;entryY=0;entryDx=0;entryDy=0;fontSize=22;endArrow=classic;endFill=1;" edge="1" parent="1" source="439" target="444">
                    <mxGeometry relative="1" as="geometry"/>
                </mxCell>
                <mxCell id="439" value="const innerCircle = this.triangleArea() / this.triangleSemiperimeter()" style="rounded=1;whiteSpace=wrap;html=1;" vertex="1" parent="1">
                    <mxGeometry x="2580" y="227.5" width="238.5" height="35" as="geometry"/>
                </mxCell>
                <mxCell id="440" style="edgeStyle=none;rounded=0;html=1;entryX=0.5;entryY=0;entryDx=0;entryDy=0;fontSize=11;endArrow=classic;endFill=1;" edge="1" parent="1" source="441" target="447">
                    <mxGeometry relative="1" as="geometry"/>
                </mxCell>
                <mxCell id="441" value="Start" style="ellipse;whiteSpace=wrap;html=1;" vertex="1" parent="1">
                    <mxGeometry x="2639.5" y="-47.5" width="120" height="60" as="geometry"/>
                </mxCell>
                <mxCell id="442" value="Stop" style="ellipse;whiteSpace=wrap;html=1;" vertex="1" parent="1">
                    <mxGeometry x="2639.5" y="367.5" width="120" height="60" as="geometry"/>
                </mxCell>
                <mxCell id="443" value="" style="edgeStyle=none;rounded=0;html=1;endArrow=classic;endFill=1;" edge="1" parent="1" source="444" target="442">
                    <mxGeometry relative="1" as="geometry"/>
                </mxCell>
                <mxCell id="444" value="return innerCircle" style="shape=parallelogram;perimeter=parallelogramPerimeter;whiteSpace=wrap;html=1;fixedSize=1;" vertex="1" parent="1">
                    <mxGeometry x="2627" y="297.5" width="145" height="32.5" as="geometry"/>
                </mxCell>
                <mxCell id="445" value="" style="edgeStyle=none;rounded=0;html=1;fontSize=11;endArrow=classic;endFill=1;" edge="1" parent="1" source="447" target="451">
                    <mxGeometry relative="1" as="geometry"/>
                </mxCell>
                <mxCell id="446" value="" style="edgeStyle=none;rounded=0;html=1;fontSize=11;endArrow=classic;endFill=1;" edge="1" parent="1" source="447" target="439">
                    <mxGeometry relative="1" as="geometry"/>
                </mxCell>
                <mxCell id="447" value="if (!this.isTriangleValid())" style="rhombus;whiteSpace=wrap;html=1;" vertex="1" parent="1">
                    <mxGeometry x="2623.25" y="45" width="152.5" height="130" as="geometry"/>
                </mxCell>
                <mxCell id="448" value="no" style="text;html=1;align=center;verticalAlign=middle;resizable=0;points=[];autosize=1;strokeColor=none;fillColor=none;fontSize=11;" vertex="1" parent="1">
                    <mxGeometry x="2768.5" y="70" width="30" height="20" as="geometry"/>
                </mxCell>
                <mxCell id="449" value="yes" style="text;html=1;align=center;verticalAlign=middle;resizable=0;points=[];autosize=1;strokeColor=none;fillColor=none;fontSize=11;" vertex="1" parent="1">
                    <mxGeometry x="2714.5" y="192.5" width="30" height="20" as="geometry"/>
                </mxCell>
                <mxCell id="450" style="edgeStyle=none;rounded=0;html=1;fontSize=11;endArrow=classic;endFill=1;entryX=1;entryY=0.5;entryDx=0;entryDy=0;" edge="1" parent="1" source="451" target="444">
                    <mxGeometry relative="1" as="geometry">
                        <mxPoint x="3058.5" y="412.5" as="targetPoint"/>
                        <Array as="points">
                            <mxPoint x="2988.5" y="107.5"/>
                            <mxPoint x="2988.5" y="313.5"/>
                        </Array>
                    </mxGeometry>
                </mxCell>
                <mxCell id="451" value="const innerCircle= -1" style="rounded=1;whiteSpace=wrap;html=1;" vertex="1" parent="1">
                    <mxGeometry x="2818.5" y="92.5" width="140" height="30" as="geometry"/>
                </mxCell>
                <mxCell id="452" value="&lt;b&gt;&lt;font style=&quot;font-size: 13px&quot;&gt;&amp;lt; - ask if this is fine with functions&lt;/font&gt;&lt;/b&gt;" style="text;html=1;align=center;verticalAlign=middle;resizable=0;points=[];autosize=1;strokeColor=none;fillColor=none;" vertex="1" parent="1">
                    <mxGeometry x="2350" y="232.5" width="230" height="20" as="geometry"/>
                </mxCell>
                <mxCell id="454" value="circumRadiusTriangle()" style="text;html=1;align=center;verticalAlign=middle;resizable=0;points=[];autosize=1;strokeColor=none;fillColor=none;" vertex="1" parent="1">
                    <mxGeometry x="3034.5" y="-60" width="140" height="20" as="geometry"/>
                </mxCell>
                <mxCell id="455" style="edgeStyle=none;html=1;entryX=0.5;entryY=0;entryDx=0;entryDy=0;fontSize=22;endArrow=classic;endFill=1;" edge="1" parent="1" source="456" target="461">
                    <mxGeometry relative="1" as="geometry"/>
                </mxCell>
                <mxCell id="456" value="const circumRadius= (this.sideA * this.sideB * this.sideC) / (4 * this.triangleArea())" style="rounded=1;whiteSpace=wrap;html=1;" vertex="1" parent="1">
                    <mxGeometry x="2990" y="235" width="238.5" height="35" as="geometry"/>
                </mxCell>
                <mxCell id="457" style="edgeStyle=none;rounded=0;html=1;entryX=0.5;entryY=0;entryDx=0;entryDy=0;fontSize=11;endArrow=classic;endFill=1;" edge="1" parent="1" source="458" target="464">
                    <mxGeometry relative="1" as="geometry"/>
                </mxCell>
                <mxCell id="458" value="Start" style="ellipse;whiteSpace=wrap;html=1;" vertex="1" parent="1">
                    <mxGeometry x="3049.5" y="-40" width="120" height="60" as="geometry"/>
                </mxCell>
                <mxCell id="459" value="Stop" style="ellipse;whiteSpace=wrap;html=1;" vertex="1" parent="1">
                    <mxGeometry x="3049.5" y="375" width="120" height="60" as="geometry"/>
                </mxCell>
                <mxCell id="460" value="" style="edgeStyle=none;rounded=0;html=1;endArrow=classic;endFill=1;" edge="1" parent="1" source="461" target="459">
                    <mxGeometry relative="1" as="geometry"/>
                </mxCell>
                <mxCell id="461" value="return circumRadius" style="shape=parallelogram;perimeter=parallelogramPerimeter;whiteSpace=wrap;html=1;fixedSize=1;" vertex="1" parent="1">
                    <mxGeometry x="3037" y="305" width="145" height="32.5" as="geometry"/>
                </mxCell>
                <mxCell id="462" value="" style="edgeStyle=none;rounded=0;html=1;fontSize=11;endArrow=classic;endFill=1;" edge="1" parent="1" source="464" target="468">
                    <mxGeometry relative="1" as="geometry"/>
                </mxCell>
                <mxCell id="463" value="" style="edgeStyle=none;rounded=0;html=1;fontSize=11;endArrow=classic;endFill=1;" edge="1" parent="1" source="464" target="456">
                    <mxGeometry relative="1" as="geometry"/>
                </mxCell>
                <mxCell id="464" value="if (!this.isTriangleValid())" style="rhombus;whiteSpace=wrap;html=1;" vertex="1" parent="1">
                    <mxGeometry x="3033.25" y="52.5" width="152.5" height="130" as="geometry"/>
                </mxCell>
                <mxCell id="465" value="no" style="text;html=1;align=center;verticalAlign=middle;resizable=0;points=[];autosize=1;strokeColor=none;fillColor=none;fontSize=11;" vertex="1" parent="1">
                    <mxGeometry x="3178.5" y="77.5" width="30" height="20" as="geometry"/>
                </mxCell>
                <mxCell id="466" value="yes" style="text;html=1;align=center;verticalAlign=middle;resizable=0;points=[];autosize=1;strokeColor=none;fillColor=none;fontSize=11;" vertex="1" parent="1">
                    <mxGeometry x="3124.5" y="200" width="30" height="20" as="geometry"/>
                </mxCell>
                <mxCell id="467" style="edgeStyle=none;rounded=0;html=1;fontSize=11;endArrow=classic;endFill=1;entryX=1;entryY=0.5;entryDx=0;entryDy=0;" edge="1" parent="1" source="468" target="461">
                    <mxGeometry relative="1" as="geometry">
                        <mxPoint x="3468.5" y="420" as="targetPoint"/>
                        <Array as="points">
                            <mxPoint x="3398.5" y="115"/>
                            <mxPoint x="3398.5" y="321"/>
                        </Array>
                    </mxGeometry>
                </mxCell>
                <mxCell id="468" value="const circumRadius= -1" style="rounded=1;whiteSpace=wrap;html=1;" vertex="1" parent="1">
                    <mxGeometry x="3228.5" y="100" width="140" height="30" as="geometry"/>
                </mxCell>
            </root>
        </mxGraphModel>
    </diagram>
</mxfile>